M48
; DRILL file {KiCad 9.0.5} date 2025-11-16T19:48:43+0100
; FORMAT={-:-/ absolute / metric / decimal}
; #@! TF.CreationDate,2025-11-16T19:48:43+01:00
; #@! TF.GenerationSoftware,Kicad,Pcbnew,9.0.5
; #@! TF.FileFunction,Plated,1,2,PTH
FMAT,2
METRIC
; #@! TA.AperFunction,Plated,PTH,ViaDrill
T1C0.300
; #@! TA.AperFunction,Plated,PTH,ViaDrill
T2C0.500
; #@! TA.AperFunction,Plated,PTH,ComponentDrill
T3C0.600
; #@! TA.AperFunction,Plated,PTH,ViaDrill
T4C0.700
; #@! TA.AperFunction,Plated,PTH,ComponentDrill
T5C0.700
; #@! TA.AperFunction,Plated,PTH,ComponentDrill
T6C0.762
; #@! TA.AperFunction,Plated,PTH,ComponentDrill
T7C0.800
; #@! TA.AperFunction,Plated,PTH,ViaDrill
T8C0.900
; #@! TA.AperFunction,Plated,PTH,ComponentDrill
T9C0.990
; #@! TA.AperFunction,Plated,PTH,ComponentDrill
T10C1.000
; #@! TA.AperFunction,Plated,PTH,ComponentDrill
T11C1.300
; #@! TA.AperFunction,Plated,PTH,ViaDrill
T12C1.500
; #@! TA.AperFunction,Plated,PTH,ComponentDrill
T13C1.500
%
G90
G05
T1
X105.99Y-52.65
X108.53Y-63.47
X109.1Y-58.51
X109.1Y-61.08
X109.12Y-56.35
X114.3Y-61.13
X117.16Y-44.42
X117.505Y-77.01
X117.97Y-66.56
X118.515Y-85.07
X118.9Y-56.83
X120.16Y-55.71
X121.33Y-55.58
X121.44Y-101.39
X124.34Y-55.25
X124.45Y-69.28
X126.4Y-49.69
X127.265Y-59.42
X127.615Y-69.47
X127.83Y-66.57
X128.62Y-74.54
X128.865Y-71.42
X130.365Y-78.82
X130.91Y-101.83
X132.665Y-65.67
X132.665Y-80.18
X132.705Y-77.17
X132.765Y-64.77
X132.92Y-73.63
X133.03Y-75.77
X136.975Y-73.08
X137.405Y-71.16
X137.735Y-66.3
X137.86Y-55.22
X138.49Y-80.52
X139.065Y-81.32
X139.415Y-89.095
X139.61Y-101.72
X139.715Y-82.12
X139.73Y-58.64
X140.177Y-75.132
X140.315Y-82.92
X141.215Y-84.72
X141.915Y-75.72
X142.865Y-75.92
X144.39Y-91.38
X145.515Y-88.72
X146.465Y-76.57
X146.515Y-58.92
X146.665Y-81.47
X147.115Y-88.67
X147.215Y-80.87
X147.715Y-82.12
X147.815Y-55.17
X148.065Y-80.295
X148.215Y-78.92
X148.215Y-82.92
X149.015Y-79.62
X149.09Y-68.52
X149.315Y-55.02
X149.665Y-70.12
X149.765Y-78.12
X149.96Y-88.0
X150.315Y-52.015
X150.315Y-71.17
X150.615Y-88.62
X150.815Y-93.32
X150.915Y-59.02
X151.015Y-72.52
X151.015Y-74.12
X151.58Y-84.17
X151.765Y-74.97
X151.915Y-72.52
X152.665Y-70.92
X153.297Y-68.238
X153.415Y-70.12
X153.84Y-65.545
X153.915Y-63.72
X153.918Y-67.617
X153.965Y-77.27
X154.065Y-69.37
X154.365Y-76.52
X154.415Y-67.02
X154.91Y-49.69
X154.99Y-63.645
X155.365Y-58.42
X157.415Y-88.395
X157.515Y-75.72
X157.665Y-65.32
X157.665Y-66.12
X158.365Y-93.12
X158.73Y-79.33
X159.02Y-75.97
X159.565Y-81.67
X162.965Y-72.62
X163.115Y-69.72
X163.115Y-75.39
X163.165Y-64.37
X165.815Y-73.17
X165.915Y-62.22
X165.95Y-67.93
X166.12Y-71.84
X166.16Y-66.21
X166.415Y-82.92
X175.12Y-36.01
X179.44Y-85.7
X182.15Y-82.93
X182.71Y-85.46
X183.85Y-82.71
X184.92Y-83.87
X185.18Y-81.52
X185.46Y-86.08
X185.57Y-79.45
X188.857Y-81.613
T2
X114.17Y-68.15
X115.61Y-83.07
X117.13Y-69.13
X120.36Y-69.465
X120.465Y-59.37
X123.25Y-77.66
X123.66Y-86.12
X123.965Y-73.17
X124.015Y-63.17
X124.91Y-82.36
X126.37Y-52.54
X135.215Y-60.07
X136.57Y-55.44
X136.83Y-78.24
X137.44Y-80.22
X137.75Y-83.75
X139.03Y-62.883
X139.73Y-53.03
X140.99Y-53.72
X141.3Y-79.51
X148.14Y-58.54
X158.82Y-62.78
X160.39Y-86.66
X162.41Y-61.04
X162.91Y-67.4
T4
X139.815Y-67.145
X141.665Y-70.92
X168.86Y-83.06
T5
X164.06Y-58.41
X165.36Y-39.69
X171.68Y-58.41
X172.98Y-39.69
T6
X126.715Y-79.48
X126.715Y-84.56
T7
X162.52Y-42.39
X170.14Y-42.39
T8
X112.06Y-74.8
X113.11Y-63.56
X126.3Y-46.77
T9
X107.52Y-86.43
X107.52Y-90.93
X107.55Y-96.29
X107.55Y-100.79
T10
X106.66Y-49.08
X106.99Y-54.8
X106.99Y-57.34
X106.99Y-59.88
X106.99Y-62.42
X106.99Y-64.96
X106.99Y-67.5
X106.99Y-70.04
X109.2Y-49.08
X109.83Y-28.54
X109.83Y-31.04
X109.83Y-33.54
X119.63Y-92.725
X120.14Y-107.58
X122.17Y-92.725
X122.68Y-107.58
X124.33Y-28.54
X124.33Y-33.54
X124.71Y-92.725
X125.22Y-107.58
X127.25Y-92.725
X129.5Y-107.58
X129.79Y-92.725
X130.82Y-28.56
X130.82Y-31.06
X130.82Y-33.56
X132.04Y-107.58
X132.33Y-92.725
X134.58Y-107.58
X134.87Y-92.725
X144.495Y-106.67
X145.32Y-28.56
X145.32Y-33.56
X147.035Y-106.67
X151.71Y-106.67
X151.71Y-109.21
X151.81Y-28.52
X151.81Y-31.02
X151.81Y-33.52
X155.74Y-106.67
X155.74Y-109.21
X166.31Y-28.52
X166.31Y-33.52
X167.632Y-109.483
X170.172Y-109.483
X170.19Y-28.97
X170.19Y-31.51
X171.14Y-62.04
X171.14Y-64.58
X171.14Y-67.12
X171.14Y-69.66
X171.14Y-72.2
X171.14Y-74.74
X174.84Y-28.56
X174.84Y-31.06
X174.84Y-33.56
X175.252Y-109.483
X180.332Y-109.483
X184.75Y-92.23
X184.75Y-94.77
X184.75Y-97.31
X184.75Y-99.85
X189.34Y-28.56
X189.34Y-33.56
T11
X110.01Y-85.18
X110.01Y-92.19
X110.04Y-95.04
X110.04Y-102.05
T12
X114.41Y-104.2
X153.86Y-89.983
X168.11Y-89.19
X191.07Y-45.05
X191.41Y-67.89
T3
G00X188.93Y-79.21
M15
G01X187.83Y-79.21
M16
G05
G00X188.93Y-87.85
M15
G01X187.83Y-87.85
M16
G05
G00X192.86Y-79.21
M15
G01X192.26Y-79.21
M16
G05
G00X192.86Y-87.85
M15
G01X192.26Y-87.85
M16
G05
T13
G00X116.68Y-25.44
M15
G01X117.98Y-25.44
M16
G05
G00X116.68Y-36.64
M15
G01X117.98Y-36.64
M16
G05
G00X137.67Y-25.46
M15
G01X138.97Y-25.46
M16
G05
G00X137.67Y-36.66
M15
G01X138.97Y-36.66
M16
G05
G00X158.66Y-25.42
M15
G01X159.96Y-25.42
M16
G05
G00X158.66Y-36.62
M15
G01X159.96Y-36.62
M16
G05
G00X181.69Y-25.46
M15
G01X182.99Y-25.46
M16
G05
G00X181.69Y-36.66
M15
G01X182.99Y-36.66
M16
G05
M30
