%TF.GenerationSoftware,KiCad,Pcbnew,9.0.5*%
%TF.CreationDate,2025-11-16T19:48:47+01:00*%
%TF.ProjectId,OSCAR_Proc,4f534341-525f-4507-926f-632e6b696361,rev?*%
%TF.SameCoordinates,Original*%
%TF.FileFunction,Paste,Top*%
%TF.FilePolarity,Positive*%
%FSLAX46Y46*%
G04 Gerber Fmt 4.6, Leading zero omitted, Abs format (unit mm)*
G04 Created by KiCad (PCBNEW 9.0.5) date 2025-11-16 19:48:47*
%MOMM*%
%LPD*%
G01*
G04 APERTURE LIST*
G04 Aperture macros list*
%AMRoundRect*
0 Rectangle with rounded corners*
0 $1 Rounding radius*
0 $2 $3 $4 $5 $6 $7 $8 $9 X,Y pos of 4 corners*
0 Add a 4 corners polygon primitive as box body*
4,1,4,$2,$3,$4,$5,$6,$7,$8,$9,$2,$3,0*
0 Add four circle primitives for the rounded corners*
1,1,$1+$1,$2,$3*
1,1,$1+$1,$4,$5*
1,1,$1+$1,$6,$7*
1,1,$1+$1,$8,$9*
0 Add four rect primitives between the rounded corners*
20,1,$1+$1,$2,$3,$4,$5,0*
20,1,$1+$1,$4,$5,$6,$7,0*
20,1,$1+$1,$6,$7,$8,$9,0*
20,1,$1+$1,$8,$9,$2,$3,0*%
G04 Aperture macros list end*
%ADD10RoundRect,0.250000X0.337500X0.475000X-0.337500X0.475000X-0.337500X-0.475000X0.337500X-0.475000X0*%
%ADD11RoundRect,0.250000X-0.337500X-0.475000X0.337500X-0.475000X0.337500X0.475000X-0.337500X0.475000X0*%
%ADD12RoundRect,0.250000X-0.475000X0.337500X-0.475000X-0.337500X0.475000X-0.337500X0.475000X0.337500X0*%
%ADD13RoundRect,0.250000X0.400000X0.625000X-0.400000X0.625000X-0.400000X-0.625000X0.400000X-0.625000X0*%
%ADD14RoundRect,0.250000X0.475000X-0.337500X0.475000X0.337500X-0.475000X0.337500X-0.475000X-0.337500X0*%
%ADD15R,1.510000X0.458000*%
%ADD16RoundRect,0.250000X0.325000X0.450000X-0.325000X0.450000X-0.325000X-0.450000X0.325000X-0.450000X0*%
%ADD17RoundRect,0.250000X0.625000X-0.400000X0.625000X0.400000X-0.625000X0.400000X-0.625000X-0.400000X0*%
G04 APERTURE END LIST*
D10*
%TO.C,C22*%
X131402500Y-73220000D03*
X129327500Y-73220000D03*
%TD*%
%TO.C,C13*%
X142252500Y-62970000D03*
X140177500Y-62970000D03*
%TD*%
D11*
%TO.C,C11*%
X121127500Y-60870000D03*
X123202500Y-60870000D03*
%TD*%
D12*
%TO.C,C32*%
X157515000Y-89932500D03*
X157515000Y-92007500D03*
%TD*%
D10*
%TO.C,C39*%
X131415000Y-68070000D03*
X129340000Y-68070000D03*
%TD*%
D12*
%TO.C,C33*%
X150815000Y-89982500D03*
X150815000Y-92057500D03*
%TD*%
%TO.C,C6*%
X113980000Y-87372500D03*
X113980000Y-89447500D03*
%TD*%
D13*
%TO.C,R11*%
X132410000Y-58350000D03*
X129310000Y-58350000D03*
%TD*%
D14*
%TO.C,C19*%
X158965000Y-66907500D03*
X158965000Y-64832500D03*
%TD*%
D10*
%TO.C,C21*%
X131402500Y-77170000D03*
X129327500Y-77170000D03*
%TD*%
D11*
%TO.C,C31*%
X164527500Y-81720000D03*
X166602500Y-81720000D03*
%TD*%
D12*
%TO.C,C3*%
X111730000Y-68022500D03*
X111730000Y-70097500D03*
%TD*%
%TO.C,C34*%
X145965000Y-90082500D03*
X145965000Y-92157500D03*
%TD*%
D11*
%TO.C,C29*%
X164477500Y-63720000D03*
X166552500Y-63720000D03*
%TD*%
D14*
%TO.C,C25*%
X139415000Y-57257500D03*
X139415000Y-55182500D03*
%TD*%
D10*
%TO.C,C36*%
X131402500Y-63270000D03*
X129327500Y-63270000D03*
%TD*%
%TO.C,C38*%
X131402500Y-65670000D03*
X129327500Y-65670000D03*
%TD*%
D14*
%TO.C,C26*%
X145915000Y-57257500D03*
X145915000Y-55182500D03*
%TD*%
D10*
%TO.C,C15*%
X144777500Y-85820000D03*
X142702500Y-85820000D03*
%TD*%
D11*
%TO.C,C14*%
X140302500Y-69320000D03*
X142377500Y-69320000D03*
%TD*%
%TO.C,C35*%
X164427500Y-74720000D03*
X166502500Y-74720000D03*
%TD*%
D13*
%TO.C,R4*%
X183820000Y-86880000D03*
X180720000Y-86880000D03*
%TD*%
D14*
%TO.C,C28*%
X155915000Y-57257500D03*
X155915000Y-55182500D03*
%TD*%
D11*
%TO.C,C30*%
X164477500Y-69670000D03*
X166552500Y-69670000D03*
%TD*%
D12*
%TO.C,C24*%
X139415000Y-90032500D03*
X139415000Y-92107500D03*
%TD*%
D14*
%TO.C,C27*%
X150915000Y-57207500D03*
X150915000Y-55132500D03*
%TD*%
D11*
%TO.C,C12*%
X121390000Y-71370000D03*
X123465000Y-71370000D03*
%TD*%
D10*
%TO.C,C37*%
X131402500Y-60920000D03*
X129327500Y-60920000D03*
%TD*%
D12*
%TO.C,C16*%
X142190000Y-65082500D03*
X142190000Y-67157500D03*
%TD*%
D10*
%TO.C,C20*%
X131432500Y-80250000D03*
X129357500Y-80250000D03*
%TD*%
D15*
%TO.C,U3*%
X144865000Y-62920000D03*
X144865000Y-63720000D03*
X144865000Y-64520000D03*
X144865000Y-65320000D03*
X144865000Y-66120000D03*
X144865000Y-66920000D03*
X144865000Y-67720000D03*
X144865000Y-68520000D03*
X144865000Y-69320000D03*
X144865000Y-70120000D03*
X144865000Y-70920000D03*
X144865000Y-71720000D03*
X144865000Y-72520000D03*
X144865000Y-73320000D03*
X144865000Y-74120000D03*
X144865000Y-74920000D03*
X144865000Y-75720000D03*
X144865000Y-76520000D03*
X144865000Y-77320000D03*
X144865000Y-78120000D03*
X144865000Y-78920000D03*
X144865000Y-79720000D03*
X144865000Y-80520000D03*
X144865000Y-81320000D03*
X144865000Y-82120000D03*
X144865000Y-82920000D03*
X144865000Y-83720000D03*
X156365000Y-83720000D03*
X156365000Y-82920000D03*
X156365000Y-82120000D03*
X156365000Y-81320000D03*
X156365000Y-80520000D03*
X156365000Y-79720000D03*
X156365000Y-78920000D03*
X156365000Y-78120000D03*
X156365000Y-77320000D03*
X156365000Y-76520000D03*
X156365000Y-75720000D03*
X156365000Y-74920000D03*
X156365000Y-74120000D03*
X156365000Y-73320000D03*
X156365000Y-72520000D03*
X156365000Y-71720000D03*
X156365000Y-70920000D03*
X156365000Y-70120000D03*
X156365000Y-69320000D03*
X156365000Y-68520000D03*
X156365000Y-67720000D03*
X156365000Y-66920000D03*
X156365000Y-66120000D03*
X156365000Y-65320000D03*
X156365000Y-64520000D03*
X156365000Y-63720000D03*
X156365000Y-62920000D03*
%TD*%
D16*
%TO.C,FB3*%
X133040000Y-70770000D03*
X130990000Y-70770000D03*
%TD*%
D14*
%TO.C,C18*%
X158665000Y-71707500D03*
X158665000Y-69632500D03*
%TD*%
D17*
%TO.C,R5*%
X116640000Y-90540000D03*
X116640000Y-87440000D03*
%TD*%
D13*
%TO.C,R3*%
X183960000Y-80280000D03*
X180860000Y-80280000D03*
%TD*%
D11*
%TO.C,C17*%
X139102500Y-72395000D03*
X141177500Y-72395000D03*
%TD*%
D14*
%TO.C,C23*%
X137765000Y-64957500D03*
X137765000Y-62882500D03*
%TD*%
M02*
